<?xml version="1.0" encoding="UTF-8"?>
<svg width="144px" height="54px" viewBox="0 0 144 54" version="1.1" xmlns="http://www.w3.org/2000/svg" xmlns:xlink="http://www.w3.org/1999/xlink">
    <!-- Generator: Sketch 41.2 (35397) - http://www.bohemiancoding.com/sketch -->
    <title>Group 3</title>
    <desc>Created with Sketch.</desc>
    <defs>
        <polygon id="path-1" points="1.90955373e-21 0.0622549322 1.90955373e-21 40.3715799 18.5437409 40.3715799 18.5437409 0.0622549322 0 0.0622549322"></polygon>
    </defs>
    <g id="Safety-&amp;-Efficacy-Final" stroke="none" stroke-width="1" fill="none" fill-rule="evenodd">
        <g id="Desktop-HD-Copy-8" transform="translate(-129.000000, -55.000000)">
            <g id="Group-3" transform="translate(129.000000, 55.000000)">
                <path d="M53.5927139,26.9563431 C53.6031405,26.9552099 53.6135671,26.9552099 53.62498,26.9552099 C53.62498,12.0677114 41.6201425,2.83298887e-05 26.8118137,2.83298887e-05 C20.1576611,2.83298887e-05 14.0745769,2.44135656 9.3872501,6.47624107 C26.4606904,25.1858667 32.291845,26.842032 53.5927139,26.9563431" id="Fill-1" fill="#D1DE40"></path>
                <path d="M9.38726419,47.434023 C14.074591,51.4689075 20.1576751,53.9092442 26.8118278,53.9092442 C41.6201566,53.9092442 53.6249941,41.8438276 53.6249941,26.956329 L53.5921644,26.956329 C32.2918591,27.0693652 26.46,28.7279386 9.38726419,47.434023" id="Fill-3" fill="#003865"></path>
                <g id="Group-8" transform="translate(0.000000, 6.739964)">
                    <mask id="mask-2" fill="white">
                        <use xlink:href="#path-1"></use>
                    </mask>
                    <g id="Clip-7"></g>
                    <path d="M9.01575264,0.0622549322 C3.48570176,4.99718003 -2.81800403e-05,12.1965132 -2.81800403e-05,20.2164216 C-2.81800403e-05,28.2356218 3.48570176,35.432122 9.01575264,40.3715799 C21.719737,23.9410938 21.719737,16.4906162 9.01575264,0.0622549322" id="Fill-6" fill="#05ABD7" mask="url(#mask-2)"></path>
                </g>
                <path d="M53.7014677,26.9589972 L53.7014677,26.9589972 L53.7014677,26.9552099 C53.66335,26.9552099 53.6285265,26.9552099 53.5922912,26.9589972 L53.7014677,26.9589972 Z" id="Fill-9" fill="#3BB8CE"></path>
                <polygon id="Fill-11" fill="#003865" points="64.4854403 10.0160183 84.0536595 10.0160183 84.0536595 14.4434134 69.4912016 14.4434134 69.4912016 24.7081823 82.7524462 24.7081823 82.7524462 29.1338776 69.4912016 29.1338776 69.4912016 40.7062125 84.0536595 40.7062125 84.0536595 45.1330411 64.4854403 45.1330411"></polygon>
                <path d="M93.7172712,25.1099851 L97.9718935,25.1099851 C102.726571,25.1099851 105.528935,22.996292 105.528935,19.6247519 C105.528935,16.4561954 103.125741,14.4434984 98.5226724,14.4434984 L93.7172712,14.4434984 L93.7172712,25.1099851 Z M88.7132008,10.0159616 L97.271056,10.0159616 C104.176856,10.0159616 110.832841,11.1223854 110.832841,19.5250307 C110.832841,23.8011442 107.680622,26.8201189 103.626359,27.5252498 L103.626359,27.6248294 C105.178657,28.2285393 105.928668,28.9831059 107.029663,31.1472262 L113.63605,45.1329844 L107.93086,45.1329844 L102.575526,32.958781 C101.024919,29.5373802 99.3739914,29.5373802 96.721827,29.5373802 L93.7172712,29.5373802 L93.7172712,45.1329844 L88.7132008,45.1329844 L88.7132008,10.0159616 Z" id="Fill-13" fill="#003865"></path>
                <polygon id="Fill-15" fill="#003865" points="122.885951 14.4434701 112.026914 14.4434701 112.026914 10.0160749 138.751735 10.0160749 138.751735 14.4434701 127.891853 14.4434701 127.891853 45.1330977 122.885951 45.1330977"></polygon>
                <path d="M141.415566,7.18496992 C141.517296,7.18496992 141.61339,7.18171198 141.704271,7.17505446 C141.79487,7.16825528 141.875746,7.14941591 141.946619,7.11825303 C142.017351,7.0872318 142.073711,7.03935428 142.11584,6.97490379 C142.157829,6.91045329 142.178823,6.82036424 142.178823,6.70449499 C142.178823,6.60675687 142.159942,6.52884968 142.122463,6.4710567 C142.084701,6.41326373 142.036091,6.3687858 141.976349,6.33762292 C141.916748,6.30646004 141.847989,6.28535428 141.770635,6.27416397 C141.69314,6.26311531 141.616913,6.25744933 141.541672,6.25744933 L140.944255,6.25744933 L140.944255,7.18496992 L141.415566,7.18496992 Z M141.614658,5.89043562 C141.959723,5.89043562 142.215316,5.95956055 142.381296,6.09738546 C142.547136,6.23521037 142.630126,6.44428496 142.630126,6.72460921 C142.630126,6.98708564 142.55714,7.17944559 142.411026,7.30183071 C142.265054,7.42421583 142.083574,7.49645705 141.86687,7.51855437 L142.69649,8.80643114 L142.211934,8.80643114 L141.422189,7.55198364 L140.944255,7.55198364 L140.944255,8.80643114 L140.492952,8.80643114 L140.492952,5.89043562 L141.614658,5.89043562 Z M139.566956,8.1892645 C139.67094,8.44947453 139.814799,8.67526375 139.998392,8.86649051 C140.181985,9.05785891 140.398831,9.20800733 140.648928,9.31693575 C140.898885,9.42600583 141.169977,9.48039921 141.461923,9.48039921 C141.7495,9.48039921 142.017351,9.42600583 142.265054,9.31693575 C142.512897,9.20800733 142.728474,9.05785891 142.912208,8.86649051 C143.095801,8.67526375 143.23966,8.44947453 143.343786,8.1892645 C143.447629,7.92891282 143.499621,7.64533062 143.499621,7.33837627 C143.499621,7.04048748 143.447629,6.76242961 143.343786,6.50434432 C143.23966,6.24654233 143.095801,6.02287785 142.912208,5.83377584 C142.728474,5.64467382 142.512897,5.49580025 142.265054,5.38673018 C142.017351,5.27780176 141.7495,5.22326672 141.461923,5.22326672 C141.169977,5.22326672 140.898885,5.27780176 140.648928,5.38673018 C140.398831,5.49580025 140.181985,5.64467382 139.998392,5.83377584 C139.814799,6.02287785 139.67094,6.24654233 139.566956,6.50434432 C139.462971,6.76242961 139.410979,7.04048748 139.410979,7.33837627 C139.410979,7.64533062 139.462971,7.92891282 139.566956,8.1892645 L139.566956,8.1892645 Z M139.158768,6.35759549 C139.291637,6.05517392 139.471848,5.7926975 139.699684,5.57030786 C139.927519,5.34777658 140.193116,5.17312281 140.496333,5.04634656 C140.799269,4.9195703 141.121226,4.856253 141.461923,4.856253 C141.802619,4.856253 142.123308,4.9195703 142.424412,5.04634656 C142.725234,5.17312281 142.988576,5.34777658 143.214298,5.57030786 C143.439879,5.7926975 143.619105,6.05517392 143.751832,6.35759549 C143.88456,6.66015871 143.950924,6.98708564 143.950924,7.33837627 C143.950924,7.69873246 143.88456,8.03146702 143.751832,8.33601333 C143.619105,8.64084294 143.439879,8.90544411 143.214298,9.13010013 C142.988576,9.35475615 142.725234,9.52940992 142.424412,9.65391979 C142.123308,9.77842965 141.802619,9.84075541 141.461923,9.84075541 C141.121226,9.84075541 140.799269,9.77842965 140.496333,9.65391979 C140.193116,9.52940992 139.927519,9.35475615 139.699684,9.13010013 C139.471848,8.90544411 139.291637,8.64084294 139.158768,8.33601333 C139.02604,8.03146702 138.959676,7.69873246 138.959676,7.33837627 C138.959676,6.98708564 139.02604,6.66015871 139.158768,6.35759549 L139.158768,6.35759549 Z" id="Fill-17" fill="#003865"></path>
            </g>
        </g>
    </g>
</svg>